<svg width="37" height="37" viewBox="0 0 37 37" fill="none" xmlns="http://www.w3.org/2000/svg">
<path d="M18.3333 18.3333C15.8125 18.3333 13.6545 17.4358 11.8594 15.6406C10.0642 13.8455 9.16667 11.6875 9.16667 9.16667C9.16667 6.64583 10.0642 4.48785 11.8594 2.69271C13.6545 0.89757 15.8125 0 18.3333 0C20.8542 0 23.0122 0.89757 24.8073 2.69271C26.6024 4.48785 27.5 6.64583 27.5 9.16667C27.5 11.6875 26.6024 13.8455 24.8073 15.6406C23.0122 17.4358 20.8542 18.3333 18.3333 18.3333ZM0 36.6667V30.25C0 28.9514 0.334584 27.7582 1.00375 26.6704C1.67292 25.5826 2.56056 24.7515 3.66667 24.1771C6.03472 22.9931 8.44097 22.1054 10.8854 21.5142C13.3299 20.9229 15.8125 20.6265 18.3333 20.625C20.8542 20.6235 23.3368 20.9199 25.7812 21.5142C28.2257 22.1085 30.6319 22.9961 33 24.1771C34.1076 24.75 34.996 25.5811 35.6652 26.6704C36.3344 27.7597 36.6682 28.9529 36.6667 30.25V36.6667H0Z" fill="black"/>
</svg>
