<svg width="100" height="100" viewBox="0 0 100 100" fill="none" xmlns="http://www.w3.org/2000/svg">
<path d="M50.0489 38.1445C47.129 38.1445 44.3946 39.2773 42.3243 41.3477C40.2638 43.418 39.1212 46.1523 39.1212 49.0723C39.1212 51.9922 40.2638 54.7266 42.3243 56.7969C44.3946 58.8574 47.129 60 50.0489 60C52.9689 60 55.7032 58.8574 57.7735 56.7969C59.8341 54.7266 60.9767 51.9922 60.9767 49.0723C60.9767 46.1523 59.8341 43.418 57.7735 41.3477C56.7623 40.3287 55.5588 39.5208 54.2327 38.9709C52.9066 38.421 51.4845 38.1401 50.0489 38.1445ZM90.3126 61.1426L83.9259 55.6836C84.2286 53.8281 84.3849 51.9336 84.3849 50.0488C84.3849 48.1641 84.2286 46.2598 83.9259 44.4141L90.3126 38.9551C90.7951 38.5421 91.1404 37.992 91.3026 37.3779C91.4648 36.7639 91.4363 36.115 91.2208 35.5176L91.1329 35.2637C89.3752 30.3485 86.7416 25.7925 83.3595 21.8164L83.1837 21.6113C82.773 21.1284 82.2257 20.7813 81.6138 20.6157C81.0019 20.4501 80.3542 20.4738 79.756 20.6836L71.8263 23.5059C68.8966 21.1035 65.6349 19.209 62.0997 17.8906L60.5665 9.59961C60.4508 8.97502 60.1479 8.40041 59.6978 7.95213C59.2478 7.50384 58.672 7.20309 58.047 7.08984L57.7833 7.04102C52.7052 6.12305 47.3536 6.12305 42.2755 7.04102L42.0118 7.08984C41.3868 7.20309 40.811 7.50384 40.361 7.95213C39.911 8.40041 39.608 8.97502 39.4923 9.59961L37.9493 17.9297C34.4476 19.2585 31.1856 21.1484 28.2911 23.5254L20.3028 20.6836C19.7049 20.4721 19.0567 20.4476 18.4444 20.6133C17.8321 20.779 17.2848 21.1271 16.8751 21.6113L16.6993 21.8164C13.3232 25.7967 10.6902 30.3516 8.92589 35.2637L8.838 35.5176C8.39855 36.7383 8.75987 38.1055 9.7462 38.9551L16.211 44.4727C15.9083 46.3086 15.7618 48.1836 15.7618 50.0391C15.7618 51.9141 15.9083 53.7891 16.211 55.6055L9.76573 61.1231C9.28327 61.5361 8.93796 62.0862 8.77573 62.7002C8.6135 63.3142 8.64203 63.9631 8.85753 64.5605L8.94542 64.8145C10.713 69.7266 13.3204 74.2676 16.7189 78.2617L16.8946 78.4668C17.3053 78.9497 17.8527 79.2968 18.4646 79.4624C19.0765 79.628 19.7242 79.6044 20.3224 79.3945L28.3107 76.5527C31.2208 78.9453 34.463 80.8398 37.9689 82.1484L39.5118 90.4785C39.6275 91.1031 39.9305 91.6777 40.3805 92.126C40.8305 92.5743 41.4063 92.875 42.0314 92.9883L42.295 93.0371C47.4231 93.96 52.6748 93.96 57.8028 93.0371L58.0665 92.9883C58.6915 92.875 59.2673 92.5743 59.7174 92.126C60.1674 91.6777 60.4704 91.1031 60.5861 90.4785L62.1193 82.1875C65.6544 80.8594 68.9161 78.9746 71.8458 76.5723L79.7755 79.3945C80.3735 79.606 81.0217 79.6306 81.634 79.4648C82.2462 79.2991 82.7936 78.951 83.2032 78.4668L83.379 78.2617C86.7775 74.2481 89.3849 69.7266 91.1525 64.8145L91.2403 64.5605C91.6603 63.3496 91.2989 61.9922 90.3126 61.1426ZM50.0489 66.2402C40.5665 66.2402 32.881 58.5547 32.881 49.0723C32.881 39.5898 40.5665 31.9043 50.0489 31.9043C59.5314 31.9043 67.2169 39.5898 67.2169 49.0723C67.2169 58.5547 59.5314 66.2402 50.0489 66.2402Z" fill="#F8F8F8"/>
</svg>
